<svg xmlns="http://www.w3.org/2000/svg" width="45" height="45" viewBox="0 0 45 45">
  <path id="Icon_metro-fire" d="M17.369,46.928c-3.454-6.241-1.615-9.816,1.04-13.186A19.533,19.533,0,0,0,22.066,26.4a7.773,7.773,0,0,1,1.371,6.614c4.038-3.9,4.8-10.12,4.19-12.5,9.126,5.538,13.027,17.528,7.77,26.414,27.958-13.734,6.954-34.285,3.3-36.6,1.219,2.315,1.45,6.234-1.012,8.135C33.515,4.741,23.209,1.928,23.209,1.928c1.219,7.077-4.418,14.816-9.854,20.6-.191-2.822-.394-4.769-2.1-7.47-.384,5.126-4.9,9.305-6.118,14.442C3.478,36.454,6.373,41.547,17.369,46.928Z" transform="translate(-4.701 -1.928)" fill="#121212"/>
</svg>
