<svg xmlns="http://www.w3.org/2000/svg" width="45" height="45" viewBox="0 0 45 45">
  <path id="Icon_awesome-fire-extinguisher" d="M43.6,2.314,26.721,4.775c-1.138.166-1.007,1.184-1.007,1.553H19.855C20.928,3.174,18.226,0,14.464,0,10.5,0,7.8,3.487,9.218,6.7,3.991,7.845,1.646,11.462.173,14.685a2.032,2.032,0,0,0,1.343,2.742A2.537,2.537,0,0,0,4.65,16.252c2.89-6.321,6.095-5.705,12.225-5.705v2.38c-4.173.955-7.232,4.327-7.232,8.273V42.891A2.275,2.275,0,0,0,12.054,45H26.518a2.275,2.275,0,0,0,2.411-2.109v-21.8c0-3.931-3.073-7.234-7.232-8.171V10.547h4.018c0,.261-.171,1.381,1.007,1.553L43.6,14.561a1.166,1.166,0,0,0,1.4-1.04V3.354A1.166,1.166,0,0,0,43.6,2.314ZM14.464,6.328a1.519,1.519,0,0,1-1.607-1.406,1.519,1.519,0,0,1,1.607-1.406,1.519,1.519,0,0,1,1.607,1.406A1.519,1.519,0,0,1,14.464,6.328Z" fill="#121212"/>
</svg>
