<svg xmlns="http://www.w3.org/2000/svg" width="45" height="45" viewBox="0 0 45 45">
  <path id="Icon_weather-smoke" d="M7.608,24.442a9.028,9.028,0,0,1,2.352-6.09,10.371,10.371,0,0,1,5.945-3.408A11.478,11.478,0,0,1,20.45,8.25a13.393,13.393,0,0,1,8.139-2.61,13.348,13.348,0,0,1,7.98,2.538,11.535,11.535,0,0,1,4.571,6.5h.713a10.951,10.951,0,0,1,7.61,2.852,8.985,8.985,0,0,1,3.144,6.888,8.847,8.847,0,0,1-.978,4.108,10.023,10.023,0,0,1-2.722,3.311v.073a5.749,5.749,0,0,1-1.48,3.843,6.521,6.521,0,0,1-3.7,2.151,7.248,7.248,0,0,1-2.4,3.818,8.417,8.417,0,0,1-4.307,1.933,3.916,3.916,0,0,1,1.136,2.731,3.972,3.972,0,0,1-1.348,3,4.667,4.667,0,0,1-3.25,1.257,4.561,4.561,0,0,1-3.25-1.257,3.935,3.935,0,0,1-1.348-3,3.643,3.643,0,0,1,.264-1.378h-.264a5.673,5.673,0,0,1-3.964-1.523,4.751,4.751,0,0,1-1.665-3.625,4.391,4.391,0,0,1,.793-2.586,6.223,6.223,0,0,1-2.959-3.021H17.781V34.23a11.083,11.083,0,0,1-7.214-3.069A8.925,8.925,0,0,1,7.608,24.442Zm3.7-.6a6.436,6.436,0,0,0,2.22,4.93,7.681,7.681,0,0,0,5.364,2.03,7.987,7.987,0,0,0,3.62-.822,7.27,7.27,0,0,0,2.748,4.5A8.285,8.285,0,0,0,30.6,36.26a8.39,8.39,0,0,0,5.866-2.223,5.3,5.3,0,0,0,4.069,1.716A5.571,5.571,0,0,0,44.39,34.3a4.616,4.616,0,0,0,1.585-3.528,7.226,7.226,0,0,0,2.51-2.513,6.363,6.363,0,0,0,.925-3.311,6.277,6.277,0,0,0-2.246-4.882,8.276,8.276,0,0,0-9.46-.943,7.336,7.336,0,0,0,.211-1.909,7.71,7.71,0,0,0-2.722-5.945,9.465,9.465,0,0,0-6.58-2.441,9.539,9.539,0,0,0-6.421,2.344A7.7,7.7,0,0,0,19.367,16.9h-.449a7.727,7.727,0,0,0-5.364,2.03A6.4,6.4,0,0,0,11.307,23.838Z" transform="translate(-7.608 -5.64)"/>
</svg>
