<svg xmlns="http://www.w3.org/2000/svg" width="45" height="45" viewBox="0 0 45 45">
  <path id="Icon_map-police"  d="M29.217,19.043c0,3.159-2.988,3.159-4.6,3.159H22.61V16.23h2.523C26.545,16.23,29.217,16.23,29.217,19.043ZM44.642,15.89a18.222,18.222,0,0,1,3.239-8.867l-7.2-6.3a13.982,13.982,0,0,1-7.8,2.83,15.059,15.059,0,0,1-7.636-1.344A16.13,16.13,0,0,1,17.594,3.55,15.04,15.04,0,0,1,10.171.981l-7.219,6.3A17.8,17.8,0,0,1,5.911,15.89a13.87,13.87,0,0,1-1.367,5.735c-.528,1.361-.928,2.543-1.2,3.529a15.679,15.679,0,0,0-.462,2.373A10.632,10.632,0,0,0,5.4,34.6a28.664,28.664,0,0,0,6.637,5.077,46.574,46.574,0,0,0,7.8,2.888l1.513.615c.476.2.986.395,1.518.607a6.12,6.12,0,0,1,2.379,1.928,6.684,6.684,0,0,1,2.44-1.928q.986-.37,1.953-.776c.525-.2.916-.353,1.143-.446q.745-.316,1.518-.577c.625-.215,1.4-.478,2.315-.769a20.677,20.677,0,0,0,3.9-1.543,32.826,32.826,0,0,0,6.554-5.005,10.5,10.5,0,0,0,2.606-7.15,23.118,23.118,0,0,0-1.731-5.71,13.711,13.711,0,0,1-1.3-5.925ZM31.409,24.525a11.088,11.088,0,0,1-5.285.979h-3.37v8.068H17.687v-20.7H24.88c3.343,0,6.138.188,8.08,2.259a5.535,5.535,0,0,1,1.416,3.879,6.225,6.225,0,0,1-2.967,5.511Z" transform="translate(-2.881 -0.72)" fill="#121212"/>
</svg>
