<svg xmlns="http://www.w3.org/2000/svg" width="45" height="45" viewBox="0 0 45 45">
  <path id="Icon_metro-water" d="M25.959,22c-1.245,9.259-7.6,10.906-7.6,17.344,0,3.974,3.612,7.2,7.889,7.2s7.887-3.227,7.887-7.2c0-6.437-6.357-8.085-7.6-17.344a.3.3,0,0,0-.572,0ZM11.348,1.751c-1.245,9.259-7.6,10.9-7.6,17.344,0,3.971,3.61,7.2,7.886,7.2s7.886-3.227,7.886-7.2c0-6.437-6.357-8.085-7.6-17.344-.037-.277-.533-.277-.57,0Zm29.227,0c-1.245,9.259-7.6,10.906-7.6,17.344,0,3.971,3.61,7.2,7.886,7.2s7.886-3.227,7.886-7.2c0-6.437-6.357-8.085-7.6-17.344-.039-.277-.533-.277-.57,0Z" transform="translate(-3.746 -1.544)"/>
</svg>
